<svg xmlns="http://www.w3.org/2000/svg" viewBox="0 0 1024 1024" role="img" aria-labelledby="title desc">
  <title id="title">Civ Modding Central Logo</title>
  <desc id="desc">White globe and CMC text on an orange background.</desc>
  <rect width="1024" height="1024" fill="#f24806"/>
  <g fill="none" stroke="#ffffff" stroke-width="28" stroke-linecap="round" stroke-linejoin="round">
    <circle cx="512" cy="330" r="240"/>
    <ellipse cx="512" cy="330" rx="180" ry="240"/>
    <ellipse cx="512" cy="330" rx="80" ry="240"/>
    <path d="M272 330h480"/>
    <path d="M300 250c76 42 352 42 424 0"/>
    <path d="M300 410c76-42 352-42 424 0"/>
  </g>
  <g fill="#ffffff">
    <path d="M258 742c0-74 58-122 142-122 51 0 90 19 113 54l-53 34c-13-20-34-31-61-31-44 0-74 27-74 65s30 65 74 65c27 0 48-11 61-31l53 34c-23 35-62 54-113 54-84 0-142-48-142-122z"/>
    <path d="M504 626h87l89 145 89-145h87v292h-66V737l-84 136h-31l-84-132v177h-87z"/>
    <path d="M866 742c0-74 58-122 142-122 51 0 90 19 113 54l-53 34c-13-20-34-31-61-31-44 0-74 27-74 65s30 65 74 65c27 0 48-11 61-31l53 34c-23 35-62 54-113 54-84 0-142-48-142-122z" transform="translate(-206 0)"/>
  </g>
</svg>
